<?xml version="1.0" encoding="utf-8"?>
<!-- Generator: Adobe Illustrator 19.1.0, SVG Export Plug-In . SVG Version: 6.00 Build 0)  -->
<svg version="1.1" id="Capa_1" xmlns="http://www.w3.org/2000/svg" xmlns:xlink="http://www.w3.org/1999/xlink" x="0px" y="0px"
	 viewBox="-90.6 238.5 107.4 99.3" style="enable-background:new -90.6 238.5 107.4 99.3;" xml:space="preserve">
<style type="text/css">
	.st0{fill:#FFFFFF;}
</style>
<g>
	<g>
		<path class="st0" d="M2.5,272.5v-3.9l14.4-0.7v-7.2l-14.4-0.7v-3H-8.8v-13.2c0-3-2.4-5.4-5.4-5.4h-45.4c-3,0-5.4,2.4-5.4,5.4v13.2
			h-11.2v3l-14.4,0.7v7.2l14.4,0.7v3.9H-65v8.4h-11.2v3l-14.4,0.7v7.2l14.4,0.7v3.9H-65v9.3h-11.2v3l-14.4,0.7v7.2l14.4,0.7v3.9H-65
			v11.4c0,3,2.4,5.4,5.4,5.4h45.4c3,0,5.4-2.4,5.4-5.4V321H2.5v-3.9l14.4-0.7v-7.2l-14.4-0.7v-3H-8.8v-9.3H2.5v-3.9l14.4-0.7v-7.2
			l-14.4-0.7v-3H-8.8v-8.4L2.5,272.5L2.5,272.5z M-8.3,259.9h7.9v2.9l14.4,0.7v1.8l-14.4,0.7v3.8h-7.9V259.9z M-65.4,269.6h-7.9
			v-3.8l-14.4-0.7v-1.8l14.4-0.7v-2.9h7.9L-65.4,269.6L-65.4,269.6L-65.4,269.6z M-65.4,293.4h-7.9v-3.7l-14.4-0.7v-1.8l14.4-0.7
			v-2.9h7.9L-65.4,293.4L-65.4,293.4L-65.4,293.4z M-65.4,318.1h-7.9v-3.8l-14.4-0.7v-1.8l14.4-0.7v-2.9h7.9L-65.4,318.1
			L-65.4,318.1L-65.4,318.1z M-55,252.6c-1.9,0-3.5-1.6-3.5-3.5c0-1.9,1.6-3.5,3.5-3.5c1.9,0,3.5,1.6,3.5,3.5
			C-51.5,251-53.1,252.6-55,252.6z M-8.3,308.4h7.9v2.9l14.4,0.7v1.8l-14.4,0.7v3.8h-7.9V308.4z M-8.3,283.7h7.9v2.9l14.4,0.7v1.8
			l-14.4,0.7v3.8h-7.9V283.7z"/>
	</g>
</g>
</svg>
